<svg width="98" height="125" viewBox="0 0 98 125" fill="none" xmlns="http://www.w3.org/2000/svg">
<path d="M52.9882 23.4634C56.0474 23.5155 57.4849 25.5496 58.4617 27.8167C59.033 29.1449 59.4126 29.211 60.7137 28.6372C63.6735 27.3264 66.7659 27.9557 68.2513 29.9307C69.9321 32.163 69.6556 34.9898 67.1714 37.0448C63.8025 39.8299 59.6227 41.0781 55.3066 41.8848C53.9428 42.1386 52.8149 41.2902 52.2031 40.3862C49.6193 36.5614 47.2788 32.615 47.898 27.7888C48.2002 25.4383 50.4744 23.4773 52.9882 23.4669V23.4634Z" fill="#FF555B"/>
<path d="M25.4915 54.2837C27.5666 54.3428 28.9009 55.4033 29.6639 57.1175C29.9809 57.8338 30.2315 58.6683 29.1442 59.1377C28.1158 59.5827 27.6514 58.9464 27.3344 58.2336C26.9363 57.3365 26.2692 56.7315 25.274 56.8845C24.0577 57.0688 22.974 56.8637 23.0072 55.6641C23.0441 54.3776 24.3894 54.3011 25.4915 54.2837Z" fill="#75933F"/>
<path fill-rule="evenodd" clip-rule="evenodd" d="M53.8172 72.8132C54.7644 78.3522 53.9093 83.3974 49.4347 87.5107C45.1333 91.4607 37.8243 90.654 34.647 84.7604C32.0596 79.9586 32.0375 75.0316 33.486 69.9168C35.0599 64.357 37.9459 59.6247 42.5385 55.8278C43.2793 55.2158 43.5042 54.7951 42.8702 53.752C40.2422 49.4161 37.194 45.4001 33.5634 41.7735C32.9232 41.1341 32.8522 41.1096 31.989 40.8113L31.9883 40.811C31.9223 40.7882 31.8517 40.7638 31.7758 40.7374C31.6126 41.3549 31.608 41.9767 31.6034 42.6039C31.5988 43.2234 31.5942 43.848 31.4367 44.4787C30.5484 48.0496 27.7213 49.4091 24.4483 50.2089C20.7698 51.1094 17.8174 52.615 16.3468 56.2311C15.6612 57.9175 14.279 59.3744 12.2886 59.962C11.0465 60.3306 11.017 61.0816 11.1092 62.1004C11.4593 65.9321 14.2163 67.7889 17.4968 69.3049C20.239 70.574 22.6606 72.2708 24.78 74.3675C26.4313 76.0052 26.9436 78.0914 27.22 80.1568C27.9978 85.96 25.8895 90.7757 21.0684 94.4579C15.5727 98.6582 9.22938 100.724 2.18203 100.995C0.582365 101.064 0 100.445 0 98.9781C0.00982903 88.2909 0.0112706 77.6037 0.0127121 66.916C0.0139735 57.5645 0.0152349 48.2125 0.0221151 38.8598C0.0221151 36.8778 0.855118 35.2923 2.5543 33.9954C7.22516 30.4241 11.852 26.8025 16.479 23.181L16.479 23.1809L16.481 23.1794C17.6916 22.2318 18.9023 21.2842 20.1137 20.3375C22.6774 18.3341 25.2368 16.3268 27.7961 14.3195L27.7973 14.3186C33.1708 10.1041 38.5437 5.89009 43.9538 1.71438C46.9615 -0.608292 50.0908 -0.545705 53.0395 1.74915C57.6241 5.32289 62.1916 8.91426 66.7588 12.5055L66.7645 12.5099C69.5097 14.6685 72.2548 16.8269 75.0035 18.9814C75.8311 19.6301 76.6587 20.279 77.4862 20.9278L77.4879 20.9292C83.1312 25.3537 88.7738 29.7778 94.4501 34.1623C96.2156 35.5253 96.8864 37.2777 96.8901 39.2979C96.9085 59.1067 96.9048 78.912 96.8975 98.7208C96.8975 100.647 96.4957 101.04 94.4095 100.97C88.1436 100.762 82.1909 99.4509 76.7801 96.332C70.5289 92.7263 69.6627 86.6936 72.7146 80.8626C73.7309 78.9215 75.1231 77.237 76.5339 75.5301C77.4102 74.47 78.2935 73.4012 79.0985 72.2569C78.2597 72.0821 77.4158 72.0999 76.5763 72.1177C75.5454 72.1395 74.5213 72.1611 73.5218 71.8257C72.4455 71.4641 71.8447 70.9634 72.099 69.8994C72.3939 68.6512 73.378 68.4669 74.5133 68.7798C77.1228 69.4996 79.4781 68.7277 81.6491 67.5316C83.3578 66.5868 83.7609 64.8113 84.1341 63.1673C84.1908 62.9176 84.2468 62.671 84.3066 62.4307C85.3865 58.1018 85.7109 53.672 85.4897 49.2144L85.4863 49.1463C85.4099 47.6413 85.3205 45.8771 83.8753 45.2297C82.568 44.6433 81.4249 45.6888 80.456 46.5751C80.3104 46.7083 80.1687 46.8379 80.031 46.9578C76.9091 49.6838 73.7724 52.3438 69.6701 53.7137C69.0885 53.9095 68.5046 54.103 67.9221 54.2961L67.4659 54.4474C65.6838 55.6917 63.6347 55.7507 61.5999 55.8094C60.9622 55.8277 60.326 55.8461 59.6998 55.9008C58.4676 56.0074 57.2285 55.9929 55.9884 55.9783C54.235 55.9577 52.4796 55.9372 50.7395 56.259L50.6595 56.2738C49.7986 56.433 49.3673 56.5128 49.2498 56.7488C49.1318 56.9857 49.3297 57.38 49.7264 58.1701L49.748 58.2131C51.7162 62.1421 53.0763 66.2659 54.1342 70.4871C54.3369 71.2972 54.3553 72.09 53.8246 72.8167L53.8172 72.8132ZM3.33385 60.6707V60.6704C3.34214 53.5913 3.35043 46.5132 3.28409 39.4332C3.26935 37.9206 3.87383 36.9158 4.98327 36.0569C8.36069 33.446 11.7426 30.8407 15.1246 28.2354L15.126 28.2343L15.1262 28.2341C19.2472 25.0595 23.3684 21.8847 27.4817 18.6995C30.684 16.2188 33.8756 13.7255 37.0675 11.232L37.0682 11.2314C40.1218 8.84591 43.1756 6.46026 46.2391 4.08541C47.7171 2.93798 49.2836 2.96928 50.7284 4.09584C55.4435 7.77582 60.1549 11.4584 64.8662 15.141L64.8727 15.146C69.5876 18.8314 74.3025 22.5167 79.0211 26.1995L79.1013 26.2621C83.2802 29.5236 87.4629 32.7882 91.6893 35.9943C92.972 36.9679 93.6097 38.0632 93.6097 39.6522C93.5765 58.47 93.5765 77.2913 93.6097 96.1092C93.6097 97.3957 93.4954 97.7608 91.8589 97.5869C87.6017 97.1279 83.5031 96.3143 79.7177 94.3776C76.9459 92.9589 74.727 91.0153 74.2774 87.9068C73.8793 85.1495 75.1435 82.7468 76.7543 80.5632C77.6759 79.3144 78.6635 78.1092 79.6512 76.904L79.6515 76.9036C81.5867 74.5422 83.5216 72.1811 84.959 69.4923C86.9678 65.7336 88.1399 61.7732 88.4679 57.5451C88.6743 54.8887 88.8549 52.2426 88.7849 49.5827C88.7444 48.091 88.5895 46.575 87.9666 45.1981C86.3928 41.7141 83.433 40.9387 80.0162 43.0006C78.5236 43.9032 77.2112 45.0107 75.8992 46.1179C75.3158 46.6102 74.7326 47.1023 74.1336 47.5764C70.3151 50.598 65.8331 51.9714 60.9641 52.2983C59.4182 52.402 57.8681 52.3768 56.3167 52.3515H56.3166H56.3165C54.0726 52.315 51.826 52.2785 49.5858 52.6321C49.2314 52.6874 48.8732 52.846 48.518 53.0032C47.8242 53.3103 47.1421 53.6122 46.5229 53.1293C46.0561 52.7641 45.7885 52.1872 45.5168 51.6017L45.5168 51.6017C45.3359 51.2116 45.1531 50.8176 44.9085 50.4798L44.7921 50.319C41.5322 45.8139 38.2683 41.3034 33.7661 37.7642C33.3017 37.3991 32.8115 37.0514 32.2844 36.7836C30.4562 35.8692 28.9008 36.7002 28.757 38.6647C28.7274 39.0564 28.7344 39.4508 28.7415 39.8454V39.8454C28.7458 40.0883 28.7502 40.3312 28.746 40.5736C28.7018 44.6626 27.1205 46.5403 22.926 47.4408C18.514 48.3901 15.2189 50.5458 13.516 54.694C13.0516 55.824 12.0527 56.7454 10.6669 57.2183C7.7366 58.2232 7.7366 59.0229 7.7366 61.2308C7.74398 66.1613 10.5379 69.2732 14.9498 71.4499C17.729 72.8198 20.5339 74.2559 22.4579 76.6794C24.7284 79.541 24.6547 85.904 21.4812 89.5966C17.9133 93.7517 13.0774 95.8136 7.77715 97.1419C7.33964 97.252 6.88989 97.3184 6.43989 97.3847C6.10893 97.4335 5.77783 97.4824 5.45137 97.5487L5.43039 97.5529C4.37242 97.7678 3.84692 97.8745 3.58591 97.6598C3.32832 97.4478 3.32832 96.9228 3.32832 95.8797V67.7503C3.32832 65.3902 3.33108 63.0304 3.33385 60.6707ZM47.1639 85.2226C50.0758 82.7608 50.8166 79.5411 50.9014 75.7685C50.7466 70.4625 48.9147 65.2851 46.4894 60.2608C45.2031 57.5974 44.8124 57.5765 42.7188 59.9166C42.6652 59.9766 42.6154 60.0403 42.5656 60.1039C42.5058 60.1803 42.446 60.2567 42.3797 60.3269C39.1509 63.7935 37.2932 67.9103 36.1838 72.3331C35.1665 76.3909 35.6309 80.2921 37.9751 83.9291C40.0687 87.1767 44.1637 87.7573 47.1639 85.2226Z" fill="#74923C"/>
<path d="M53.8174 72.8131C53.6147 68.6719 51.9855 64.8854 50.4854 61.0745C49.8514 59.4681 49.0074 57.9348 48.2075 56.2692C50.102 55.8311 52.0261 55.4487 54.0275 55.466C58.5353 55.5008 63.0468 55.5599 67.4587 54.4473C67.0459 59.6559 65.8407 64.5551 61.9226 68.5815C59.6853 70.8833 56.9025 72.062 53.8137 72.8131H53.8174Z" fill="#A5BE46"/>
<path d="M58.8336 58.9324C58.8888 58.9359 59.3422 58.8907 59.7329 59.0194C60.4185 59.2454 60.8645 59.7183 60.7686 60.4623C60.6765 61.1856 60.1273 61.4464 59.4565 61.356C57.8789 61.1439 56.9059 61.7489 56.3382 63.1327C56.0397 63.8594 55.3357 63.9742 54.6575 63.6195C54.0383 63.2961 53.6992 62.8337 53.9756 62.0444C54.6833 60.0277 56.2129 58.922 58.8336 58.9324Z" fill="#75923E"/>
<path d="M1.51101 124.855C1.04092 124.855 0.696743 124.783 0.478486 124.638C0.260229 124.51 0.125917 124.333 0.0755505 124.108C0.0251835 123.883 0 123.634 0 123.36V109.447C0 108.9 0.109129 108.522 0.327386 108.313C0.562432 108.104 0.982156 108 1.58656 108H11.4081C11.6935 108 11.9454 108.032 12.1636 108.096C12.3819 108.145 12.5582 108.273 12.6925 108.482C12.8268 108.675 12.894 109.005 12.894 109.471C12.894 109.921 12.8184 110.251 12.6673 110.46C12.533 110.669 12.3483 110.797 12.1133 110.845C11.895 110.894 11.6432 110.918 11.3578 110.918H3.0472V114.969H8.76386C9.04927 114.969 9.29271 115.001 9.49418 115.065C9.71243 115.113 9.87193 115.234 9.97266 115.427C10.0902 115.604 10.1489 115.901 10.1489 116.319C10.1489 116.705 10.0902 116.994 9.97266 117.187C9.85514 117.364 9.68725 117.477 9.469 117.525C9.26753 117.557 9.02409 117.573 8.73867 117.573H3.0472V123.384C3.0472 123.658 3.01363 123.907 2.94647 124.132C2.8961 124.341 2.76179 124.51 2.54353 124.638C2.32528 124.783 1.9811 124.855 1.51101 124.855Z" fill="#74923C"/>
<path d="M20.8376 124.831C20.0653 124.831 19.3517 124.703 18.697 124.445C18.059 124.172 17.4966 123.786 17.0097 123.288C16.5228 122.79 16.145 122.195 15.8764 121.504C15.6078 120.812 15.4735 120.049 15.4735 119.213V114.414C15.4735 114.141 15.4987 113.9 15.549 113.691C15.5994 113.466 15.7337 113.289 15.952 113.16C16.1702 113.032 16.506 112.967 16.9593 112.967C17.4462 112.967 17.7904 113.032 17.9918 113.16C18.2101 113.289 18.3444 113.466 18.3948 113.691C18.4451 113.916 18.4703 114.165 18.4703 114.438V119.213C18.4703 119.791 18.5711 120.29 18.7725 120.708C18.9908 121.126 19.3014 121.455 19.7043 121.696C20.1073 121.922 20.6025 122.034 21.1901 122.034C21.7945 122.034 22.3066 121.922 22.7263 121.696C23.1628 121.455 23.4986 121.126 23.7337 120.708C23.9687 120.274 24.0862 119.775 24.0862 119.213V114.39C24.0862 114.117 24.1114 113.876 24.1618 113.667C24.2122 113.442 24.3465 113.273 24.5647 113.16C24.783 113.032 25.1272 112.967 25.5973 112.967C26.0673 112.967 26.4031 113.032 26.6046 113.16C26.8061 113.289 26.932 113.466 26.9823 113.691C27.0495 113.916 27.0831 114.157 27.0831 114.414V123.457C27.0831 123.698 27.0495 123.923 26.9823 124.132C26.932 124.341 26.7977 124.51 26.5794 124.638C26.3779 124.767 26.0422 124.831 25.5721 124.831C25.2363 124.831 24.9677 124.791 24.7662 124.711C24.5815 124.646 24.4388 124.558 24.3381 124.445C24.2541 124.317 24.1954 124.188 24.1618 124.06C24.145 123.931 24.1366 123.802 24.1366 123.674L24.3381 123.023C24.2373 123.167 24.0862 123.344 23.8848 123.553C23.6833 123.746 23.4315 123.947 23.1293 124.156C22.8439 124.349 22.5081 124.51 22.1219 124.638C21.7358 124.767 21.3077 124.831 20.8376 124.831Z" fill="#74923C"/>
<path d="M32.8194 124.855C32.3661 124.855 32.0303 124.783 31.8121 124.638C31.6106 124.51 31.4847 124.333 31.4343 124.108C31.3839 123.883 31.3588 123.634 31.3588 123.36V114.414C31.3588 114.125 31.3839 113.876 31.4343 113.667C31.4847 113.442 31.6106 113.273 31.8121 113.16C32.0303 113.032 32.3745 112.967 32.8446 112.967C33.2979 112.967 33.6253 113.024 33.8267 113.136C34.045 113.249 34.1793 113.393 34.2297 113.57C34.2968 113.731 34.3304 113.892 34.3304 114.052L34.1289 114.487C34.2129 114.358 34.3304 114.205 34.4815 114.028C34.6326 113.835 34.8341 113.651 35.0859 113.474C35.3378 113.281 35.64 113.128 35.9925 113.016C36.3451 112.887 36.7648 112.823 37.2517 112.823C37.4532 112.823 37.663 112.847 37.8813 112.895C38.1163 112.927 38.343 112.983 38.5612 113.064C38.7963 113.128 39.0061 113.217 39.1908 113.329C39.3755 113.442 39.5182 113.578 39.6189 113.739C39.7197 113.884 39.7701 114.052 39.7701 114.245C39.7701 114.76 39.6357 115.194 39.3671 115.548C39.0985 115.901 38.7795 116.078 38.4101 116.078C38.1583 116.078 37.9736 116.054 37.8561 116.006C37.7386 115.957 37.6378 115.901 37.5539 115.837C37.4867 115.773 37.3776 115.716 37.2265 115.668C37.0922 115.62 36.8739 115.596 36.5717 115.596C36.3199 115.596 36.0597 115.636 35.7911 115.716C35.5392 115.797 35.3042 115.917 35.0859 116.078C34.8677 116.239 34.6914 116.448 34.5571 116.705C34.4228 116.946 34.3556 117.227 34.3556 117.549V123.409C34.3556 123.682 34.3304 123.931 34.28 124.156C34.2297 124.365 34.0954 124.534 33.8771 124.662C33.6589 124.791 33.3063 124.855 32.8194 124.855Z" fill="#74923C"/>
<path d="M45.3618 124.855C44.8917 124.855 44.5475 124.783 44.3293 124.638C44.111 124.51 43.9767 124.333 43.9263 124.108C43.8759 123.883 43.8508 123.634 43.8508 123.36V109.447C43.8508 108.9 43.9599 108.522 44.1782 108.313C44.4132 108.104 44.8329 108 45.4373 108H55.2589C55.5443 108 55.7961 108.032 56.0144 108.096C56.2494 108.145 56.4341 108.273 56.5684 108.482C56.7027 108.675 56.7699 109.005 56.7699 109.471C56.7699 109.921 56.6943 110.251 56.5432 110.46C56.4089 110.669 56.2243 110.797 55.9892 110.845C55.771 110.894 55.5191 110.918 55.2337 110.918H46.898V114.969H52.6398C52.9252 114.969 53.1687 115.001 53.3701 115.065C53.5716 115.113 53.7311 115.226 53.8486 115.403C53.9661 115.58 54.0249 115.877 54.0249 116.295C54.0249 116.697 53.9661 116.994 53.8486 117.187C53.7311 117.364 53.5632 117.477 53.3449 117.525C53.1267 117.557 52.8749 117.573 52.5894 117.573H46.898V121.913H55.2589C55.5443 121.913 55.7961 121.946 56.0144 122.01C56.2494 122.058 56.4341 122.187 56.5684 122.396C56.7027 122.605 56.7699 122.934 56.7699 123.384C56.7699 123.835 56.6943 124.164 56.5432 124.373C56.4089 124.582 56.2243 124.711 55.9892 124.759C55.771 124.823 55.5191 124.855 55.2337 124.855H45.3618Z" fill="#74923C"/>
<path d="M64.9701 124.904C64.6175 124.904 64.3237 124.847 64.0887 124.735C63.8536 124.622 63.6689 124.437 63.5346 124.18L58.9512 114.993C58.6994 114.511 58.6322 114.125 58.7497 113.835C58.8673 113.546 59.1695 113.289 59.6564 113.064C60.16 112.823 60.563 112.742 60.8652 112.823C61.1674 112.903 61.436 113.2 61.671 113.715L64.9701 121.118L68.2187 113.86C68.4538 113.329 68.7224 113 69.0246 112.871C69.3268 112.726 69.7633 112.791 70.3342 113.064C70.905 113.337 71.2072 113.643 71.2408 113.98C71.2743 114.302 71.182 114.671 70.9637 115.089L66.4055 124.18C66.2712 124.421 66.0865 124.598 65.8515 124.711C65.6164 124.839 65.3226 124.904 64.9701 124.904Z" fill="#74923C"/>
<path d="M80.2189 125C79.1276 125 78.1706 124.831 77.348 124.494C76.5421 124.156 75.8621 123.698 75.3081 123.119C74.7708 122.524 74.3595 121.865 74.0741 121.142C73.8055 120.402 73.6712 119.639 73.6712 118.851C73.6712 117.694 73.9482 116.665 74.5022 115.765C75.0563 114.864 75.8202 114.157 76.7939 113.643C77.7845 113.128 78.9177 112.871 80.1937 112.871C81.1003 112.871 81.8978 113.008 82.5861 113.281C83.2745 113.554 83.8453 113.916 84.2986 114.366C84.7687 114.8 85.1213 115.282 85.3563 115.813C85.6081 116.343 85.7341 116.858 85.7341 117.356C85.7341 118.208 85.5158 118.827 85.0793 119.213C84.6596 119.599 84.1307 119.791 83.4927 119.791H76.8443C76.8611 120.338 77.0374 120.812 77.3731 121.214C77.7257 121.616 78.1622 121.93 78.6827 122.155C79.2199 122.364 79.7656 122.468 80.3196 122.468C80.7393 122.468 81.1087 122.444 81.4277 122.396C81.7635 122.348 82.0489 122.291 82.2839 122.227C82.519 122.147 82.7204 122.066 82.8883 121.986C83.073 121.905 83.2409 121.833 83.392 121.769C83.5431 121.704 83.6858 121.664 83.8201 121.648C84.0048 121.632 84.1895 121.672 84.3742 121.769C84.5588 121.865 84.7099 122.034 84.8275 122.275C84.9282 122.436 84.9953 122.589 85.0289 122.733C85.0793 122.862 85.1045 122.991 85.1045 123.119C85.1045 123.441 84.903 123.746 84.5001 124.035C84.0971 124.309 83.5263 124.534 82.7876 124.711C82.0657 124.904 81.2094 125 80.2189 125ZM76.8443 118.079H82.0069C82.2923 118.079 82.5106 118.039 82.6617 117.959C82.8128 117.862 82.8883 117.67 82.8883 117.38C82.8883 117.01 82.7708 116.681 82.5358 116.391C82.3007 116.086 81.9817 115.853 81.5788 115.692C81.1758 115.515 80.7058 115.427 80.1685 115.427C79.5473 115.427 78.9849 115.548 78.4812 115.789C77.9775 116.014 77.5746 116.327 77.2724 116.729C76.987 117.131 76.8443 117.581 76.8443 118.079Z" fill="#74923C"/>
<path d="M91.0494 124.855C90.5961 124.855 90.2603 124.783 90.042 124.638C89.8406 124.51 89.7146 124.333 89.6643 124.108C89.6139 123.883 89.5887 123.634 89.5887 123.36V114.414C89.5887 114.125 89.6139 113.876 89.6643 113.667C89.7146 113.442 89.8406 113.273 90.042 113.16C90.2603 113.032 90.6044 112.967 91.0745 112.967C91.5278 112.967 91.8552 113.024 92.0567 113.136C92.2749 113.249 92.4093 113.393 92.4596 113.57C92.5268 113.731 92.5604 113.892 92.5604 114.052L92.3589 114.487C92.4428 114.358 92.5604 114.205 92.7115 114.028C92.8626 113.835 93.064 113.651 93.3159 113.474C93.5677 113.281 93.8699 113.128 94.2225 113.016C94.5751 112.887 94.9948 112.823 95.4817 112.823C95.6831 112.823 95.893 112.847 96.1112 112.895C96.3463 112.927 96.5729 112.983 96.7912 113.064C97.0262 113.128 97.2361 113.217 97.4208 113.329C97.6055 113.442 97.7482 113.578 97.8489 113.739C97.9496 113.884 98 114.052 98 114.245C98 114.76 97.8657 115.194 97.5971 115.548C97.3284 115.901 97.0095 116.078 96.6401 116.078C96.3883 116.078 96.2036 116.054 96.0861 116.006C95.9685 115.957 95.8678 115.901 95.7838 115.837C95.7167 115.773 95.6076 115.716 95.4565 115.668C95.3222 115.62 95.1039 115.596 94.8017 115.596C94.5499 115.596 94.2896 115.636 94.021 115.716C93.7692 115.797 93.5341 115.917 93.3159 116.078C93.0976 116.239 92.9213 116.448 92.787 116.705C92.6527 116.946 92.5855 117.227 92.5855 117.549V123.409C92.5855 123.682 92.5604 123.931 92.51 124.156C92.4596 124.365 92.3253 124.534 92.1071 124.662C91.8888 124.791 91.5362 124.855 91.0494 124.855Z" fill="#74923C"/>
</svg>
