<?xml version="1.0" standalone="no"?>
<!DOCTYPE svg PUBLIC "-//W3C//DTD SVG 20010904//EN"
 "http://www.w3.org/TR/2001/REC-SVG-20010904/DTD/svg10.dtd">
<svg version="1.0" xmlns="http://www.w3.org/2000/svg"
 width="512.000000pt" height="512.000000pt" viewBox="0 0 512.000000 512.000000"
 preserveAspectRatio="xMidYMid meet">
<metadata>
Created by potrace 1.16, written by Peter Selinger 2001-2019
</metadata>
<g transform="translate(0.000000,512.000000) scale(0.100000,-0.100000)"
fill="#000000" stroke="none">
<path d="M3115 5030 c-131 -26 -225 -78 -325 -179 -189 -191 -233 -462 -114
-709 51 -106 168 -224 274 -276 191 -93 422 -85 598 21 278 169 380 519 236
813 -52 104 -169 222 -275 273 -121 59 -272 81 -394 57z"/>
<path d="M3485 3828 c-115 -21 -263 -119 -349 -231 -55 -71 -82 -140 -101
-261 -28 -176 -81 -299 -180 -423 -153 -192 -375 -301 -656 -323 -93 -7 -139
-15 -167 -29 -38 -19 -112 -92 -112 -110 0 -9 -243 -102 -270 -103 -8 0 -71
32 -139 72 -92 54 -128 70 -141 64 -10 -5 -144 -101 -297 -214 l-279 -205
-228 -402 -228 -402 -144 -56 c-169 -66 -194 -87 -194 -154 0 -52 22 -85 68
-102 35 -13 65 -6 222 57 74 30 140 54 147 54 22 0 183 -94 183 -107 0 -6 -25
-175 -55 -375 -54 -353 -55 -364 -40 -405 51 -132 239 -117 274 21 5 23 20
109 32 193 12 84 26 150 29 148 4 -2 10 -78 13 -169 4 -119 10 -172 21 -194
23 -45 74 -72 134 -72 43 0 57 5 86 30 57 51 58 61 42 425 l-14 328 311 595
312 595 105 38 105 39 56 -25 c47 -21 72 -25 151 -25 390 0 770 144 974 369
l40 45 33 -155 c18 -85 41 -191 51 -237 14 -61 15 -84 7 -87 -7 -2 -156 -45
-332 -95 -176 -51 -342 -103 -368 -118 -99 -54 -161 -160 -161 -277 0 -99 198
-1182 229 -1251 30 -68 82 -124 147 -159 73 -40 187 -47 270 -15 79 29 148 94
182 170 42 92 37 145 -47 605 -41 220 -73 402 -71 404 4 4 368 109 371 107 2
-2 -41 -110 -95 -242 -95 -234 -97 -241 -97 -319 1 -64 6 -91 26 -135 50 -107
139 -172 262 -191 39 -6 296 -9 663 -7 l599 3 60 28 c73 34 128 85 163 152 24
45 27 61 27 150 0 89 -3 105 -27 150 -51 96 -137 158 -244 175 -33 6 -204 10
-381 10 -178 0 -323 2 -323 5 0 3 68 175 151 382 139 345 152 385 157 454 4
69 -9 135 -148 784 -167 782 -167 782 -263 877 -128 128 -344 185 -552 146z"/>
<path d="M1248 3306 c-58 -21 -117 -60 -206 -135 -46 -39 -92 -76 -103 -81
-10 -6 -72 -24 -136 -41 -75 -18 -138 -42 -174 -63 l-56 -34 -88 44 c-68 34
-98 44 -136 44 -112 0 -179 -84 -135 -168 8 -15 48 -59 88 -97 93 -88 159
-176 322 -433 70 -111 132 -204 136 -207 6 -4 532 368 572 404 4 3 -8 47 -27
96 l-34 90 65 67 c103 107 152 242 130 361 -9 49 -57 116 -102 144 -44 26 -64
28 -116 9z"/>
</g>
</svg>
