<?xml version="1.0" standalone="no"?>
<!DOCTYPE svg PUBLIC "-//W3C//DTD SVG 20010904//EN"
 "http://www.w3.org/TR/2001/REC-SVG-20010904/DTD/svg10.dtd">
<svg version="1.0" xmlns="http://www.w3.org/2000/svg"
 width="512.000000pt" height="512.000000pt" viewBox="0 0 512.000000 512.000000"
 preserveAspectRatio="xMidYMid meet">
<metadata>
Created by potrace 1.16, written by Peter Selinger 2001-2019
</metadata>
<g transform="translate(0.000000,512.000000) scale(0.100000,-0.100000)"
fill="#000000" stroke="none">
<path d="M2180 5104 c-553 -73 -1057 -322 -1450 -714 -319 -320 -552 -730
-659 -1160 -49 -199 -62 -307 -68 -542 -6 -248 5 -382 47 -587 122 -590 460
-1122 948 -1489 145 -109 252 -174 423 -257 227 -109 463 -183 719 -222 163
-25 569 -25 728 0 221 35 489 113 661 193 41 19 80 34 87 34 7 0 244 -80 526
-177 481 -166 518 -177 598 -181 69 -3 96 0 143 18 83 31 153 92 196 170 35
63 36 68 36 170 l0 105 -177 513 c-98 282 -178 519 -178 526 0 7 15 46 34 87
80 172 158 440 193 661 25 159 25 565 0 728 -40 257 -110 485 -223 719 -82
171 -146 277 -258 426 -415 551 -1046 910 -1728 984 -134 15 -471 12 -598 -5z
m660 -319 c403 -69 761 -234 1072 -494 325 -273 591 -680 702 -1076 147 -528
102 -1045 -138 -1559 -29 -63 -46 -112 -46 -137 0 -23 73 -251 190 -591 104
-304 190 -559 190 -567 0 -20 -30 -51 -49 -51 -9 0 -265 86 -569 190 -340 117
-568 190 -591 190 -25 0 -74 -17 -137 -46 -368 -172 -740 -244 -1107 -216
-536 41 -1008 256 -1387 632 -348 346 -552 737 -637 1225 -24 140 -25 508 -1
655 102 632 441 1158 972 1511 296 197 597 302 1006 353 79 10 438 -3 530 -19z"/>
<path d="M2344 3836 c-348 -66 -600 -350 -621 -696 -5 -88 -4 -97 18 -129 53
-77 126 -99 201 -62 63 31 78 59 93 167 28 197 129 328 300 390 279 101 585
-115 586 -414 1 -122 -38 -218 -123 -309 -80 -84 -172 -126 -301 -139 -74 -7
-115 -29 -151 -77 -20 -28 -21 -39 -21 -392 0 -352 1 -364 21 -391 39 -53 71
-69 134 -69 67 0 102 20 135 76 18 31 20 55 23 295 l3 261 51 13 c28 7 92 33
142 58 75 37 107 61 181 136 76 77 98 107 137 186 81 164 105 319 74 482 -57
300 -268 526 -564 603 -83 22 -234 27 -318 11z"/>
<path d="M2414 1481 c-59 -27 -89 -74 -89 -137 1 -93 64 -156 155 -156 164 0
214 220 66 291 -52 26 -79 26 -132 2z"/>
</g>
</svg>
