<?xml version="1.0" standalone="no"?>
<!DOCTYPE svg PUBLIC "-//W3C//DTD SVG 20010904//EN"
 "http://www.w3.org/TR/2001/REC-SVG-20010904/DTD/svg10.dtd">
<svg version="1.0" xmlns="http://www.w3.org/2000/svg"
 width="512.000000pt" height="512.000000pt" viewBox="0 0 512.000000 512.000000"
 preserveAspectRatio="xMidYMid meet">
<metadata>
Created by potrace 1.16, written by Peter Selinger 2001-2019
</metadata>
<g transform="translate(0.000000,512.000000) scale(0.100000,-0.100000)"
fill="#000000" stroke="none">
<path d="M2235 5105 c-462 -60 -885 -237 -1255 -523 -117 -91 -316 -287 -413
-407 -276 -342 -459 -746 -537 -1186 -28 -156 -39 -531 -21 -702 43 -399 182
-790 398 -1122 98 -150 184 -257 318 -394 419 -430 948 -690 1550 -760 134
-16 460 -13 605 4 748 93 1416 512 1833 1150 257 394 407 882 407 1325 0 140
-11 173 -72 210 -47 29 -134 27 -178 -3 -61 -40 -71 -70 -81 -244 -10 -185
-28 -305 -70 -463 -76 -287 -203 -544 -392 -795 -78 -103 -299 -324 -402 -402
-413 -311 -862 -464 -1365 -464 -589 0 -1126 218 -1551 628 -442 427 -679 987
-679 1603 0 365 73 675 232 995 287 575 812 1002 1432 1166 298 78 652 93 961
38 426 -74 872 -306 1170 -608 l69 -71 -215 0 c-208 0 -217 -1 -249 -22 -57
-39 -75 -72 -75 -138 0 -66 18 -99 75 -137 33 -23 34 -23 449 -23 l416 0 36
24 c69 47 69 47 69 496 0 449 0 449 -69 496 -49 33 -134 34 -181 2 -70 -48
-75 -62 -78 -239 l-4 -160 -71 68 c-371 352 -889 592 -1417 658 -152 18 -501
18 -645 0z"/>
<path d="M968 3501 c-145 -47 -269 -174 -312 -320 -14 -47 -16 -134 -16 -622
0 -529 1 -571 19 -628 46 -147 172 -272 320 -315 49 -14 217 -16 1581 -16
1364 0 1532 2 1581 16 148 43 274 168 320 315 18 57 19 99 19 629 0 530 -1
572 -19 629 -46 147 -172 272 -320 315 -49 14 -217 16 -1585 15 -1457 0 -1534
-1 -1588 -18z m780 -666 c59 -32 101 -75 134 -138 19 -35 23 -58 23 -137 0
-87 -3 -100 -30 -149 -30 -54 -82 -103 -145 -137 -54 -29 -210 -27 -267 4
-106 56 -163 142 -171 256 -5 86 8 139 51 203 33 50 107 106 161 123 17 5 67
8 111 7 66 -3 89 -8 133 -32z m960 0 c59 -32 101 -75 134 -138 19 -35 23 -58
23 -137 0 -87 -3 -100 -30 -149 -30 -54 -82 -103 -145 -137 -54 -29 -210 -27
-267 4 -106 56 -163 142 -171 256 -5 86 8 139 51 203 33 50 107 106 161 123
17 5 67 8 111 7 66 -3 89 -8 133 -32z m960 0 c59 -32 101 -75 134 -138 19 -35
23 -58 23 -137 0 -87 -3 -100 -30 -149 -30 -54 -82 -103 -145 -137 -54 -29
-210 -27 -267 4 -106 56 -163 142 -171 256 -5 86 8 139 51 203 33 50 107 106
161 123 17 5 67 8 111 7 66 -3 89 -8 133 -32z"/>
</g>
</svg>
