<svg width="26" height="29" viewBox="0 0 26 29" fill="none" xmlns="http://www.w3.org/2000/svg">
<path d="M14.1644 6.64868C14.9822 6.66346 15.3664 7.23985 15.6275 7.88225C15.7802 8.25862 15.8817 8.27734 16.2295 8.11477C17.0207 7.74332 17.8473 7.92166 18.2444 8.48129C18.6937 9.11384 18.6198 9.91487 17.9557 10.4972C17.0552 11.2864 15.9379 11.6401 14.7841 11.8687C14.4196 11.9406 14.1181 11.7002 13.9545 11.444C13.2639 10.3602 12.6382 9.24193 12.8037 7.87436C12.8845 7.20832 13.4924 6.65262 14.1644 6.64967V6.64868Z" fill="#FF555B"/>
<path d="M6.81418 15.3821C7.36889 15.3988 7.72556 15.6993 7.92951 16.1851C8.01424 16.388 8.08124 16.6245 7.79058 16.7575C7.51569 16.8836 7.39155 16.7033 7.30681 16.5014C7.2004 16.2472 7.02207 16.0757 6.75605 16.1191C6.4309 16.1713 6.14123 16.1132 6.1501 15.7732C6.15995 15.4087 6.51958 15.387 6.81418 15.3821Z" fill="#75933F"/>
<path fill-rule="evenodd" clip-rule="evenodd" d="M14.386 20.6327C14.6392 22.2022 14.4106 23.6319 13.2145 24.7975C12.0647 25.9167 10.1109 25.6882 9.26159 24.0181C8.56992 22.6574 8.56401 21.2613 8.95122 19.812C9.37194 18.2365 10.1434 16.8956 11.3711 15.8196C11.5691 15.6462 11.6292 15.527 11.4597 15.2314C10.7572 14.0028 9.94241 12.8648 8.97192 11.8372C8.80079 11.656 8.78181 11.649 8.55104 11.5645L8.49406 11.5435C8.45044 11.7185 8.44921 11.8947 8.44797 12.0724V12.0725C8.44675 12.248 8.44552 12.425 8.40341 12.6037C8.16596 13.6156 7.41025 14.0008 6.53533 14.2274C5.55203 14.4826 4.76282 14.9092 4.3697 15.9339C4.18643 16.4118 3.81696 16.8246 3.28491 16.9911C2.95287 17.0956 2.94499 17.3084 2.96962 17.5971C3.06322 18.6828 3.80021 19.209 4.6771 19.6386C5.41015 19.9982 6.05747 20.479 6.624 21.0731C7.06541 21.5372 7.20236 22.1283 7.27626 22.7136C7.48415 24.358 6.92057 25.7226 5.63183 26.766C4.16279 27.9563 2.46713 28.5415 0.583283 28.6184C0.155673 28.6381 0 28.4627 0 28.0469C0.00262742 25.0185 0.00301276 21.9902 0.00339811 18.9616C0.00373529 16.3117 0.00407249 13.6617 0.00591165 11.0115C0.00591165 10.4499 0.228584 10.0006 0.682796 9.63309C1.93138 8.62111 3.1682 7.59489 4.40504 6.56866C4.72884 6.3 5.05264 6.03134 5.37665 5.76293C6.0619 5.19527 6.74604 4.62648 7.43013 4.05773L7.43051 4.05741L7.4306 4.05734C8.86699 2.86312 10.3032 1.66903 11.7494 0.485795C12.5534 -0.172369 13.3899 -0.154634 14.1781 0.495648C15.4037 1.50838 16.6247 2.52612 17.8457 3.5438C18.5799 4.15581 19.3142 4.7678 20.0494 5.37867L20.7131 5.93025C22.2217 7.18413 23.7302 8.43788 25.2477 9.68038C25.7196 10.0666 25.8989 10.5632 25.8999 11.1356C25.9049 16.7487 25.9039 22.3609 25.9019 27.974C25.9019 28.5198 25.7945 28.6312 25.2368 28.6115C23.5619 28.5523 21.9706 28.1809 20.5243 27.2971C18.8532 26.2754 18.6217 24.5659 19.4375 22.9136C19.7092 22.3636 20.0814 21.8863 20.4585 21.4026C20.6927 21.1022 20.9288 20.7993 21.144 20.4751C20.9198 20.4255 20.6942 20.4306 20.4698 20.4356C20.1942 20.4418 19.9205 20.4479 19.6533 20.3529C19.3656 20.2504 19.205 20.1085 19.273 19.807C19.3518 19.4533 19.6149 19.4011 19.9183 19.4898C20.6159 19.6937 21.2455 19.475 21.8258 19.1361C22.2826 18.8683 22.3903 18.3652 22.4901 17.8994L22.4901 17.8993C22.5053 17.8286 22.5202 17.7587 22.5362 17.6907C22.8249 16.464 22.9116 15.2088 22.8525 13.9456L22.8515 13.9263C22.8311 13.4999 22.8072 13 22.4209 12.8165C22.0714 12.6503 21.7659 12.9466 21.5069 13.1978L21.5068 13.1978C21.4679 13.2355 21.4301 13.2722 21.3933 13.3062C20.5588 14.0787 19.7203 14.8324 18.6237 15.2206C18.468 15.2761 18.3117 15.331 18.1558 15.3858L18.0345 15.4285C17.5581 15.7811 17.0103 15.7978 16.4664 15.8144C16.296 15.8196 16.1259 15.8248 15.9585 15.8403C15.6291 15.8705 15.2979 15.8664 14.9664 15.8623H14.9664C14.4977 15.8565 14.0285 15.8506 13.5633 15.9418L13.5419 15.946C13.315 15.9905 13.1997 16.0131 13.1664 16.0779C13.1321 16.1447 13.185 16.2564 13.2925 16.4834L13.2983 16.4955C13.8244 17.6089 14.188 18.7774 14.4707 19.9736C14.5249 20.2031 14.5299 20.4278 14.388 20.6337L14.386 20.6327ZM0.891213 17.192V17.1919C0.89343 15.186 0.895646 13.1803 0.877912 11.1741C0.873971 10.7455 1.03556 10.4607 1.33212 10.2174C2.23506 9.47742 3.1392 8.73909 4.04337 8.00072L4.04339 8.00071C5.14501 7.10111 6.24666 6.20148 7.34624 5.29887C8.20225 4.59593 9.05544 3.88939 9.90868 3.1828C10.725 2.5068 11.5414 1.83075 12.3603 1.15776C12.7554 0.832618 13.1741 0.841486 13.5604 1.16071C14.8209 2.20361 16.0805 3.24725 17.34 4.29088L17.3419 4.29247C18.6021 5.3366 19.8622 6.38072 21.1233 7.42411L21.1447 7.44175C22.2618 8.36598 23.3799 9.29107 24.5097 10.1996C24.8526 10.4755 25.0231 10.7859 25.0231 11.2361C25.0142 16.5684 25.0142 21.9017 25.0231 27.2341C25.0231 27.5986 24.9925 27.7021 24.5551 27.6528C23.4171 27.5227 22.3214 27.2922 21.3096 26.7434C20.5686 26.3414 19.9755 25.7906 19.8553 24.9098C19.7489 24.1285 20.0868 23.4476 20.5174 22.8289C20.7638 22.475 21.0278 22.1334 21.2919 21.7919L21.2919 21.7919C21.8092 21.1227 22.3264 20.4537 22.7106 19.6918C23.2476 18.6267 23.5609 17.5045 23.6486 16.3064C23.7038 15.5536 23.7521 14.8038 23.7333 14.0501C23.7225 13.6274 23.6811 13.1978 23.5146 12.8077C23.0939 11.8204 22.3027 11.6007 21.3894 12.185C20.9904 12.4407 20.6395 12.7546 20.2888 13.0683L20.2888 13.0683C20.1329 13.2078 19.977 13.3473 19.8169 13.4816C18.7961 14.3378 17.598 14.727 16.2965 14.8196C15.8833 14.849 15.4689 14.8418 15.0542 14.8347H15.0542C14.4543 14.8243 13.8538 14.814 13.2549 14.9142C13.1602 14.9299 13.0644 14.9748 12.9695 15.0193C12.784 15.1064 12.6017 15.1919 12.4362 15.0551C12.3114 14.9516 12.2399 14.7881 12.1672 14.6222C12.1189 14.5116 12.07 14.4 12.0046 14.3043L11.9735 14.2587L11.9735 14.2587C11.1021 12.9821 10.2296 11.704 9.02614 10.7011C8.90199 10.5977 8.77095 10.4992 8.63006 10.4233C8.14136 10.1642 7.72557 10.3996 7.68715 10.9563C7.67922 11.0673 7.68111 11.1791 7.68299 11.2909V11.2909V11.2909C7.68416 11.3597 7.68532 11.4285 7.68419 11.4972C7.67237 12.6559 7.24969 13.188 6.12844 13.4432C4.94907 13.7121 4.06823 14.323 3.61304 15.4984C3.48889 15.8187 3.22188 16.0798 2.85142 16.2137C2.06812 16.4985 2.06812 16.7251 2.06812 17.3508C2.07009 18.7479 2.81693 19.6297 3.99631 20.2465C4.7392 20.6347 5.489 21.0416 6.00331 21.7283C6.61024 22.5392 6.59054 24.3423 5.74221 25.3886C4.78847 26.566 3.49579 27.1503 2.07896 27.5267C1.96201 27.5579 1.8418 27.5767 1.72151 27.5955L1.72148 27.5955C1.63302 27.6093 1.54452 27.6232 1.45725 27.642L1.45167 27.6432C1.17374 27.703 1.03327 27.7332 0.962279 27.6765C0.889735 27.6186 0.889735 27.4698 0.889735 27.169V19.1981C0.889735 18.5294 0.890474 17.8607 0.891213 17.192ZM12.6076 24.1491C13.3859 23.4515 13.584 22.5391 13.6066 21.4701C13.5652 19.9666 13.0756 18.4995 12.4272 17.0758C12.0834 16.3211 11.9789 16.3152 11.4193 16.9783C11.405 16.9953 11.3917 17.0133 11.3784 17.0313C11.3624 17.053 11.3464 17.0746 11.3287 17.0945C10.4656 18.0768 9.96899 19.2434 9.67242 20.4967C9.40048 21.6465 9.52463 22.752 10.1513 23.7826C10.7109 24.7028 11.8055 24.8673 12.6076 24.1491Z" fill="#74923C"/>
<path d="M14.3861 20.6327C14.3319 19.4592 13.8964 18.3863 13.4954 17.3064C13.3259 16.8512 13.1003 16.4167 12.8865 15.9448C13.3929 15.8206 13.9072 15.7122 14.4422 15.7172C15.6472 15.727 16.8532 15.7438 18.0326 15.4285C17.9222 16.9044 17.6 18.2927 16.5527 19.4336C15.9546 20.0859 15.2107 20.4199 14.3851 20.6327H14.3861Z" fill="#A5BE46"/>
<path d="M15.7269 16.6994C15.7417 16.7004 15.8629 16.6876 15.9674 16.724C16.1506 16.7881 16.2698 16.9221 16.2442 17.1329C16.2196 17.3379 16.0728 17.4118 15.8935 17.3861C15.4718 17.326 15.2116 17.4975 15.0599 17.8896C14.9801 18.0955 14.7919 18.128 14.6106 18.0276C14.4451 17.9359 14.3545 17.8049 14.4284 17.5812C14.6175 17.0098 15.0264 16.6964 15.7269 16.6994Z" fill="#75923E"/>
</svg>
