<svg width="19" height="24" viewBox="0 0 19 24" fill="none"
    xmlns="http://www.w3.org/2000/svg">
    <path d="M9.54683 23.2392C9.5297 23.2568 9.51306 23.2738 9.49693 23.2904C9.4808 23.2738 9.46416 23.2568 9.44703 23.2392C9.19038 22.9757 8.82286 22.5915 8.38145 22.1104C7.4981 21.1477 6.32144 19.8002 5.14601 18.2593C3.96934 16.7167 2.80158 14.9903 1.92994 13.2694C1.05428 11.5405 0.5 9.86071 0.5 8.4C0.5 4.08806 4.46318 0.5 9.49693 0.5C14.5307 0.5 18.4939 4.08806 18.4939 8.4C18.4939 9.86071 17.9396 11.5405 17.0639 13.2694C16.1923 14.9903 15.0245 16.7167 13.8479 18.2593C12.6724 19.8002 11.4958 21.1477 10.6124 22.1104C10.171 22.5915 9.80349 22.9757 9.54683 23.2392ZM5.60517 8.4C5.60517 10.3881 7.40798 11.9 9.49693 11.9C11.5859 11.9 13.3887 10.3881 13.3887 8.4C13.3887 6.41195 11.5859 4.9 9.49693 4.9C7.40798 4.9 5.60517 6.41195 5.60517 8.4Z" fill="#74923C" stroke="#74923C"/>
</svg>
